<?xml version="1.0" ?><!DOCTYPE svg  PUBLIC '-//W3C//DTD SVG 1.0//EN'  'http://www.w3.org/TR/2001/REC-SVG-20010904/DTD/svg10.dtd'><svg enable-background="new 0 0 72 72" height="72px" id="Layer_1" version="1.0" viewBox="0 0 72 72" width="72px" xml:space="preserve" xmlns="http://www.w3.org/2000/svg" xmlns:xlink="http://www.w3.org/1999/xlink"><g><path d="M36.46,15.474c-14.039,0-25.42,11.454-25.42,25.584s11.381,25.586,25.42,25.586   c14.04,0,25.42-11.456,25.42-25.586S50.5,15.474,36.46,15.474" fill="#006553"/><path d="M54.239,38.823c-0.091-0.079-0.206-0.101-0.312-0.057c0,0-11.694,4.88-12.015,5.015   c-0.27,0.114-0.442-0.17-0.442-0.17l-3.681-5.577c-0.091-0.141-0.72-0.479-0.72-0.302l-0.021,21.665l17.12-8.839   c0.128-0.065,0.213-0.22,0.213-0.39V39.165C54.383,39.029,54.33,38.903,54.239,38.823" fill="#FFFFFF"/><path d="M37.09,33.225L20,29.174l16.341-3.484l15.751,3.098L37.09,33.225z M58.101,34.3l-3.151-5.168   c-0.045-0.073-0.108-0.128-0.183-0.153l-18.321-3.859c-0.062-0.023-0.145-0.014-0.206,0.006l-18.321,3.861   c-0.074,0.024-0.137,0.076-0.183,0.151l-3.151,5.168c-0.066,0.108-0.087,0.249-0.053,0.377c0.032,0.13,0.112,0.231,0.218,0.275   l15.492,6.451c0.037,0.014,0.074,0.021,0.11,0.021c0.103,0,0.2-0.056,0.269-0.155l5.622-7.626c0.045,0.016,5.823,7.62,5.823,7.62   c0.065,0.101,0.166,0.155,0.268,0.155c0.037,0,0.074-0.008,0.11-0.021l15.492-6.451c0.104-0.042,0.187-0.146,0.219-0.273   C58.186,34.548,58.166,34.408,58.101,34.3" fill="#FFFFFF"/><path d="M36.503,35.503c-0.136-0.059-5.29,8.112-5.29,8.112s-0.173,0.285-0.441,0.174   c-0.319-0.135-12.015-5.016-12.015-5.016c-0.105-0.045-0.223-0.023-0.312,0.056c-0.092,0.079-0.145,0.208-0.145,0.344v11.002   c0,0.172,0.085,0.325,0.212,0.393l17.974,8.789" fill="#FFFFFF"/></g></svg>