<svg width="128" height="128" xmlns="http://www.w3.org/2000/svg">

 <title/>
 <g>
  <title>background</title>
  <rect fill="none" id="canvas_background" height="402" width="582" y="-1" x="-1"/>
 </g>
 <g>
  <title>Layer 1</title>
  <circle fill="#c9e593" id="svg_1" r="64" cy="64" cx="64" class="cls-1"/>
  <path fill="#c9e593" id="svg_2" d="m53,40a9.94,9.94 0 0 0 -4.29,1a16,16 0 0 0 -31.71,3c0,0.09 0,0.18 0,0.26a8,8 0 1 0 -2,15.74l38,0a10,10 0 0 0 0,-20z" class="cls-1"/>
  <path fill="#ffffff" id="svg_3" d="m53,35a9.94,9.94 0 0 0 -4.29,1a16,16 0 0 0 -31.71,3c0,0.09 0,0.18 0,0.26a8,8 0 1 0 -2,15.74l38,0a10,10 0 0 0 0,-20z" class="cls-2"/>
  <path fill="#c9e593" id="svg_4" d="m117,21a9.94,9.94 0 0 0 -4.29,1a16,16 0 0 0 -31.71,3c0,0.09 0,0.18 0,0.26a8,8 0 1 0 -2,15.74l38,0a10,10 0 0 0 0,-20z" class="cls-1"/>
  <circle stroke="#c9e593" stroke-width="2px" stroke-miterlimit="10" fill="none" id="svg_7" r="5" cy="13" cx="23" class="cls-4"/>
  <path fill="#ffffff" id="svg_9" d="m117,16a9.94,9.94 0 0 0 -4.29,1a16,16 0 0 0 -31.71,3c0,0.09 0,0.18 0,0.26a8,8 0 1 0 -2,15.74l38,0a10,10 0 0 0 0,-20z" class="cls-2"/>
  <line stroke-width="4px" stroke-linecap="round" stroke="#9eb56b" stroke-miterlimit="10" fill="none" id="svg_10" y2="119" y1="119" x2="40" x1="122" class="cls-5"/>
  <line stroke-width="4px" stroke-linecap="round" stroke="#9eb56b" stroke-miterlimit="10" fill="none" id="svg_11" y2="119" y1="119" x2="5" x1="46" class="cls-5"/>
  <path fill="#ffab02" id="svg_12" d="m40.5,80.37c-2.17,-2.9 -5.1,-6 -8,-6s-7.5,7 -14.5,2c-2.36,-1.69 -5.32,2.6 -7.5,5.5a32.81,32.81 0 0 0 -3.5,6l43.5,0s-7.82,-4.6 -10,-7.5z" class="cls-6"/>
  <path stroke="#d68f27" stroke-width="4px" stroke-miterlimit="10" fill="none" id="svg_13" d="m40.5,80.37c-2.18,-2.9 -5.1,-6 -8,-6s-7.5,7 -14.5,2c-2.36,-1.69 -5.32,2.6 -7.5,5.5a32.81,32.81 0 0 0 -3.5,6l43.5,0s-7.82,-4.6 -10,-7.5z" class="cls-7"/>
  <path fill="#ffc801" id="svg_14" d="m6,88.87c-0.91,-2.73 2.73,-6.77 7,-11.5c2.88,-3.19 4,-3.44 4.5,-3.5c1.83,-0.22 8.48,0.88 15.5,8.5c5.53,6 10.62,6.52 10.5,7c-1.25,4.92 -35.5,5.53 -37.5,-0.5z" class="cls-8"/>
  <path stroke="#d68f27" stroke-width="4px" stroke-miterlimit="10" fill="none" id="svg_15" d="m6,88.87c-0.91,-2.73 2.73,-6.77 7,-11.5c2.88,-3.19 4,-3.44 4.5,-3.5c1.83,-0.22 8.48,0.88 15.5,8.5c5.53,6 10.62,6.52 10.5,7c-1.25,4.92 -35.5,5.53 -37.5,-0.5z" class="cls-7"/>
  <path fill="#925a27" id="svg_16" d="m3,86.87l0,3.5s0,24.5 19,24.5l12,0c19,0 19,-24.5 19,-24.5l0,-3.5l-50,0z" class="cls-9"/>
  <path fill="#b27746" id="svg_17" d="m52.93,91.87l-17.43,0l0,4l17,0a40.24,40.24 0 0 0 0.43,-4z" class="cls-10"/>
  <rect fill="#9b6736" id="svg_18" y="87.87" x="18" width="27.5" height="4" class="cls-11"/>
  <rect fill="#82532b" id="svg_19" y="91.87" x="8" width="27.5" height="4" class="cls-12"/>
  <path fill="#82532b" id="svg_20" d="m33,107.87l0,4l10.93,0a17.1,17.1 0 0 0 3.91,-4l-14.84,0z" class="cls-12"/>
  <path fill="#9b6736" id="svg_21" d="m3.55,95.87l4.45,0l0,-4l-4.93,0a40.24,40.24 0 0 0 0.48,4z" class="cls-11"/>
  <rect fill="#9b6736" id="svg_22" y="95.87" x="8" width="27.5" height="4" class="cls-11"/>
  <path fill="#b27746" id="svg_23" d="m12.07,111.87l12.93,0l0,-4l-16.85,0a17.1,17.1 0 0 0 3.92,4z" class="cls-10"/>
  <rect fill="#9b6736" id="svg_24" y="103.87" x="18" width="27.5" height="4" class="cls-11"/>
  <path fill="#82532b" id="svg_25" d="m51.54,99.87l-11,0l0,4l9.6,0a30.58,30.58 0 0 0 1.4,-4z" class="cls-12"/>
  <path fill="#9b6736" id="svg_26" d="m22,114.85l12,0.15c0.51,0 1,0 1.5,0l0,-2.94l-23.43,-0.3a16.51,16.51 0 0 0 9.93,3.09z" class="cls-11"/>
  <path fill="#b27746" id="svg_27" d="m5.9,103.87l16.1,0l0,-4l-17.54,0a30.58,30.58 0 0 0 1.44,4z" class="cls-10"/>
  <path fill="#b27746" id="svg_28" d="m3,90.37s0,0.56 0.07,1.5l14.93,0l0,-4l-15,0l0,2.5z" class="cls-10"/>
  <path opacity="0.2" fill="#ffffff" id="svg_29" d="m48.83,86.87l-45.83,0l0,3.5s0,12.33 6.78,19.49a3.13,3.13 0 0 0 2.28,-4.09a38.39,38.39 0 0 1 -2.06,-11.4l0,-0.5a3,3 0 0 1 3,-3l32.88,0a3.09,3.09 0 0 0 3,-2.35a3,3 0 0 0 -0.05,-1.65z" class="cls-13"/>
  <path stroke="#7f4f2b" stroke-width="4px" stroke-miterlimit="10" fill="none" id="svg_30" d="m3,86.87l0,3.5s0,24.5 19,24.5l12,0c19,0 19,-24.5 19,-24.5l0,-3.5l-50,0z" class="cls-14"/>
  <path fill="#d64005" id="svg_31" d="m113.5,80.37c-2.17,-2.9 -5.1,-6 -8,-6s-7.5,7 -14.5,2c-2.36,-1.69 -5.33,2.6 -7.5,5.5a32.81,32.81 0 0 0 -3.5,6l43.5,0s-7.82,-4.6 -10,-7.5z" class="cls-15"/>
  <path stroke-linejoin="round" stroke="#b52b00" stroke-width="4px" fill="none" id="svg_32" d="m113.5,80.37c-2.18,-2.9 -5.1,-6 -8,-6s-7.5,7 -14.5,2c-2.36,-1.69 -5.32,2.6 -7.5,5.5a32.81,32.81 0 0 0 -3.5,6l43.5,0s-7.82,-4.6 -10,-7.5z" class="cls-16"/>
  <path fill="#f54f01" id="svg_33" d="m79,88.87c-0.91,-2.73 2.73,-6.77 7,-11.5c2.88,-3.19 4,-3.44 4.5,-3.5c1.83,-0.22 8.48,0.88 15.5,8.5c5.53,6 10.62,6.52 10.5,7c-1.25,4.92 -35.5,5.53 -37.5,-0.5z" class="cls-17"/>
  <path stroke="#b52b00" stroke-width="4px" stroke-miterlimit="10" fill="none" id="svg_34" d="m79,88.87c-0.91,-2.73 2.73,-6.77 7,-11.5c2.88,-3.19 4,-3.44 4.5,-3.5c1.83,-0.22 8.48,0.88 15.5,8.5c5.53,6 10.62,6.52 10.5,7c-1.25,4.92 -35.5,5.53 -37.5,-0.5z" class="cls-18"/>
  <path fill="#925a27" id="svg_35" d="m76,86.87l0,3.5s0,24.5 19,24.5l12,0c19,0 19,-24.5 19,-24.5l0,-3.5l-50,0z" class="cls-9"/>
  <path fill="#b27746" id="svg_36" d="m125.93,91.87l-17.43,0l0,4l17,0a40.24,40.24 0 0 0 0.43,-4z" class="cls-10"/>
  <rect fill="#9b6736" id="svg_37" y="87.87" x="91" width="27.5" height="4" class="cls-11"/>
  <rect fill="#82532b" id="svg_38" y="91.87" x="81" width="27.5" height="4" class="cls-12"/>
  <path fill="#82532b" id="svg_39" d="m106,107.87l0,4l10.93,0a17.1,17.1 0 0 0 3.91,-4l-14.84,0z" class="cls-12"/>
  <path fill="#9b6736" id="svg_40" d="m76.55,95.87l4.45,0l0,-4l-4.93,0a40.24,40.24 0 0 0 0.48,4z" class="cls-11"/>
  <rect fill="#9b6736" id="svg_41" y="95.87" x="81" width="27.5" height="4" class="cls-11"/>
  <path fill="#b27746" id="svg_42" d="m85.07,111.87l12.93,0l0,-4l-16.85,0a17.1,17.1 0 0 0 3.92,4z" class="cls-10"/>
  <rect fill="#9b6736" id="svg_43" y="103.87" x="91" width="27.5" height="4" class="cls-11"/>
  <path fill="#82532b" id="svg_44" d="m124.54,99.87l-11,0l0,4l9.6,0a30.58,30.58 0 0 0 1.4,-4z" class="cls-12"/>
  <path fill="#9b6736" id="svg_45" d="m95,114.85l12,0.15c0.51,0 1,0 1.5,0l0,-2.94l-23.43,-0.3a16.51,16.51 0 0 0 9.93,3.09z" class="cls-11"/>
  <path fill="#b27746" id="svg_46" d="m78.9,103.87l16.1,0l0,-4l-17.54,0a30.58,30.58 0 0 0 1.44,4z" class="cls-10"/>
  <path fill="#b27746" id="svg_47" d="m76,90.37s0,0.56 0.07,1.5l14.93,0l0,-4l-15,0l0,2.5z" class="cls-10"/>
  <path opacity="0.2" fill="#ffffff" id="svg_48" d="m121.83,86.87l-45.83,0l0,3.5s0,12.33 6.78,19.49a3.13,3.13 0 0 0 2.28,-4.09a38.39,38.39 0 0 1 -2.06,-11.4l0,-0.5a3,3 0 0 1 3,-3l32.88,0a3.09,3.09 0 0 0 3,-2.35a3,3 0 0 0 -0.05,-1.65z" class="cls-13"/>
  <path stroke="#7f4f2b" stroke-width="4px" stroke-miterlimit="10" fill="none" id="svg_49" d="m76,86.87l0,3.5s0,24.5 19,24.5l12,0c19,0 19,-24.5 19,-24.5l0,-3.5l-50,0z" class="cls-14"/>
  <path fill="#4c2d1b" id="svg_50" d="m91,41l-4,0l0,-9l-46,0l0,9l-4,0l0,6l4,0l0,7a6,6 0 0 0 6,6l34,0a6,6 0 0 0 6,-6l0,-7l4,0l0,-6z" class="cls-19"/>
  <path fill="#9b6736" id="svg_51" d="m95.94,12.13c0.06,-1.06 0.06,-2.13 0.06,-3.13c0,-7.66 -28,-7 -36,-7s-28,-0.66 -28,7c0,1 0,2.07 0.07,3.14a4,4 0 0 0 4,3.86l0.66,0a4,4 0 0 0 -4,4.48c0.74,6.5 5.87,4.7 6.58,8.3a4,4 0 0 0 3.95,3.22l41.51,0a4,4 0 0 0 3.92,-3.19c0.73,-3.56 5.88,-1.71 6.61,-8.37a4,4 0 0 0 -4,-4.44l0.62,0a4,4 0 0 0 4.02,-3.87z" class="cls-11"/>
  <path fill="#a87951" id="svg_52" d="m71.5,8l2.28,0c1.8,-0.3 4.05,-1.52 4.41,-5.61c-7.19,-0.52 -14.65,-0.39 -18.19,-0.39c-8,0 -28,-0.66 -28,7c0,1 0,2.07 0.07,3.14a4,4 0 0 0 4,3.86l0.66,0a4,4 0 0 0 -4,4.48c0.68,5.94 5,5 6.3,7.5a9.43,9.43 0 0 1 -0.3,-1.5c-0.27,-2.38 -0.59,-6.19 -0.68,-8.34c-0.05,-1.07 -0.05,-2.14 -0.05,-3.14c0,-7.66 20,-7 28,-7c1.34,0 3.26,0 5.5,0z" class="cls-20"/>
  <line stroke="#6b4125" stroke-width="4px" stroke-miterlimit="10" fill="none" id="svg_53" y2="16" y1="16" x2="93" x1="35" class="cls-21"/>
  <path stroke="#7f4f2b" stroke-width="4px" stroke-miterlimit="10" fill="none" id="svg_54" d="m95.94,12.13c0.06,-1.06 0.06,-2.13 0.06,-3.13c0,-7.66 -28,-7 -36,-7s-28,-0.66 -28,7c0,1 0,2.07 0.07,3.14a4,4 0 0 0 4,3.86l0.66,0a4,4 0 0 0 -4,4.48c0.74,6.5 5.87,4.7 6.58,8.3a4,4 0 0 0 3.95,3.22l41.51,0a4,4 0 0 0 3.92,-3.19c0.73,-3.56 5.88,-1.71 6.61,-8.37a4,4 0 0 0 -4,-4.44l0.62,0a4,4 0 0 0 4.02,-3.87z" class="cls-14"/>
  <line stroke="#b7af80" stroke-width="4px" stroke-linecap="round" stroke-miterlimit="10" fill="none" id="svg_55" y2="12" y1="12" x2="98" x1="30" class="cls-22"/>
  <rect opacity="0.51" fill="#a7e8ea" id="svg_56" y="40" x="36" width="56" ry="4" rx="4" height="8" class="cls-23"/>
  <path opacity="0.7" fill="#ffffff" id="svg_57" d="m63.08,40l-23.08,0a4,4 0 0 0 0,8l20,0l0,-2a7,7 0 0 0 6.92,-6l-3.84,0z" class="cls-24"/>
  <rect stroke="#a8c9cc" stroke-linejoin="round" stroke-width="4px" stroke-linecap="round" fill="none" id="svg_58" y="40" x="36" width="56" ry="4" rx="4" height="8" class="cls-25"/>
  <path opacity="0.51" fill="#a7e8ea" id="svg_59" d="m40.54,48c-8.97,29.08 -14.54,30 -14.54,43.5c0,26.51 11.49,28 38,28s38,-1.49 38,-28c0,-13.5 -5.57,-14.42 -14.54,-43.5l-46.92,0z" class="cls-23"/>
  <rect opacity="0.52" fill="#8fcccc" id="svg_60" y="50" x="40" width="48" height="4" class="cls-26"/>
  <path fill="#6d8459" id="svg_61" d="m67.67,119.49l-7.34,0c-9.31,-0.07 -16.58,-0.51 -22,-2.51c1.46,4.45 7.35,9 11.65,9l28.02,0c4.3,0 10.19,-4.57 11.65,-9c-5.4,2.02 -12.65,2.43 -21.98,2.51z" class="cls-27"/>
  <path fill="#445e1b" id="svg_62" d="m102,92.11c-4.77,-2.79 -9.26,-5.8 -11,-8.11c-4.35,-5.8 -10.2,-12 -16,-12c-2.83,0 -6.48,3.34 -11.11,5.59c-8.99,-5.89 -16.32,-6.9 -18.89,-6.59c-1.09,0.13 -3.24,0.61 -9,7c-3.81,4.22 -7.35,8.16 -10,11.72c0,0.57 0,1.16 0,1.78c0,1.15 0,2.24 0.07,3.3l0,0q0,1.12 0.13,2.17l0,0q0.08,1.06 0.19,2l0,0c2.19,19.32 13.88,20.53 37.61,20.53c23.08,0 34.77,-1.14 37.41,-18.92c-1,-0.22 0.1,-0.75 0.1,-0.75a63.1,63.1 0 0 0 0.49,-7.72z" class="cls-28"/>
  <path fill="#93c15d" id="svg_63" d="m36.83,101.82c2.38,1.2 13.32,4.46 20.86,-2.47a18.1,18.1 0 0 0 4.12,-5.48c-0.37,2.81 -0.58,5.82 1.18,8.67c2.61,4.24 8.48,6.33 9.9,4.95c0.34,-0.33 0.31,-0.75 0.35,-1.77c0.19,-4.7 1.23,-5 1.06,-7.42c-0.22,-3.14 -2.11,-5.41 -3.66,-7.17a14,14 0 0 0 7.55,1.16c3.82,-0.49 6.17,-2.75 9.19,-5.66c1.21,-1.16 5.27,-5.07 4.24,-7.07a2.54,2.54 0 0 0 -1.77,-1.06c-6.41,-1.64 -9.62,-2.47 -12,-2.12c-3,0.42 -7.7,1.11 -9.9,4.95c0,0.08 -0.16,0.29 -0.29,0.57a18.31,18.31 0 0 0 -0.77,-4.46c-1.26,-4.51 -4.82,-9.41 -7.42,-8.84c-0.88,0.19 -1.37,1 -2.12,2.12a11.74,11.74 0 0 0 -1.41,8.49c0.29,1.28 1.17,5.14 4.6,6.72c0.26,0.12 3.59,1.6 5.66,0a3.21,3.21 0 0 0 0.65,-0.67a6.4,6.4 0 0 0 0.08,1.25l-1.55,0.41a2,2 0 0 0 -0.95,0.06a2.26,2.26 0 0 0 -1.16,1l-1.21,0.5a7.1,7.1 0 0 0 -2.58,-2.89c-4,-2.66 -9.41,-0.54 -11.67,0.35c-3.63,1.43 -6.19,4.49 -11.31,10.61c-0.65,0.78 -1.8,2.19 -1.41,3.54a3.19,3.19 0 0 0 1.74,1.73zm30.37,-14.22l0,0.08l0.06,0.13l-0.46,-0.31l0.4,0.1zm-5.14,2.21a5.46,5.46 0 0 0 -0.18,-0.8l0.56,-0.38a8.81,8.81 0 0 0 0.02,1.28l-0.4,-0.1z" class="cls-29"/>
  <path fill="#4e9908" id="svg_64" d="m38,91c4.58,-8.68 19.23,-8.07 21,-8c20.47,0.85 31.33,20.94 33,26c0.33,1 1,3.18 0,5c-1.36,2.44 -5,2.82 -7,3c-15.9,1.41 -23.84,2.11 -31,-1c-4.45,-1.94 -15.07,-6.55 -17,-16a13.67,13.67 0 0 1 1,-9z" class="cls-30"/>
  <path stroke="#57821e" stroke-width="4px" stroke-miterlimit="10" fill="none" id="svg_65" d="m38,91c4.58,-8.68 19.23,-8.07 21,-8c20.47,0.85 31.33,20.94 33,26c0.33,1 1,3.18 0,5c-1.36,2.44 -5,2.82 -7,3c-15.9,1.41 -23.84,2.11 -31,-1c-4.45,-1.94 -15.07,-6.55 -17,-16a13.67,13.67 0 0 1 1,-9z" class="cls-31"/>
  <path stroke="#9fc172" stroke-linecap="round" stroke-width="2px" stroke-miterlimit="10" fill="none" id="svg_66" d="m32,90s29,3 53,22" class="cls-32"/>
  <path stroke="#9fc172" stroke-linecap="round" stroke-width="2px" stroke-miterlimit="10" fill="none" id="svg_67" d="m48,94s-5,12 10,19" class="cls-32"/>
  <path stroke="#9fc172" stroke-linecap="round" stroke-width="2px" stroke-miterlimit="10" fill="none" id="svg_68" d="m55,95s1,-8 14,-6" class="cls-32"/>
  <path stroke="#9fc172" stroke-linecap="round" stroke-width="2px" stroke-miterlimit="10" fill="none" id="svg_69" d="m66,101s-3,6 6,13" class="cls-32"/>
  <path stroke="#9fc172" stroke-linecap="round" stroke-width="2px" stroke-miterlimit="10" fill="none" id="svg_70" d="m70,102s5,-6 12,-4" class="cls-32"/>
  <path stroke="#57683a" stroke-width="4px" stroke-linecap="round" stroke-miterlimit="10" fill="none" id="svg_71" d="m38.53,117.49c1.73,4.28 7.33,8.51 11.47,8.51l28,0c4.2,0 9.93,-4.37 11.55,-8.71" class="cls-33"/>
  <path opacity="0.51" fill="#ffffff" id="svg_72" d="m81,54l-42.88,0c-1,3.43 -2.72,10 -2.72,10c-6.4,11 -9.4,14.82 -9.4,25.5a31.91,31.91 0 0 0 2.22,12.56c5.21,-2.18 5.83,-7.46 5.91,-8.55l0,-0.2l0,0c0.87,-13.66 11.87,-30.6 11.87,-30.6l0.36,-1.25a4.78,4.78 0 0 1 4.57,-3.46l0,0a4.77,4.77 0 0 1 4.74,5.31c-1.67,14.74 -2.67,17.61 -2.67,28.19l0,0.15a11.23,11.23 0 0 0 10.62,11.35a11,11 0 0 0 11.38,-11q0,-0.27 0,-0.54c0,-10.78 -1,-13.56 -2.77,-29a4,4 0 0 1 4,-4.45l0.54,0a4.15,4.15 0 0 0 4.23,-4.01z" class="cls-34"/>
  <path stroke="#a8c9cc" stroke-linejoin="round" stroke-width="4px" stroke-linecap="round" fill="none" id="svg_73" d="m102,91c-0.14,-13 -5.68,-14.29 -14.53,-43l-46.93,0c-7,22.7 -11.93,28.24 -13.76,36" class="cls-25"/>
  <path stroke="#89a865" stroke-width="4px" stroke-linecap="round" stroke-miterlimit="10" fill="none" id="svg_74" d="m26.78,84a32,32 0 0 0 -0.78,7.5c0,26.51 11.49,28 38,28s38,-1.49 38,-28c0,-0.17 0,-0.33 0,-0.5" class="cls-35"/>
 </g>
</svg>